<svg xmlns="http://www.w3.org/2000/svg" viewBox="140 185 750 650">
  <path fill="#2E7E90" d="M656.375 229.286C685.807 207.987 721.603 185.105 759.531 193.739C777.749 197.798 793.577 208.997 803.467 224.826C828.008 264.533 799.645 318.899 789.793 359.646C794.024 370.359 801.536 383.541 806.814 394.083C827.583 435.57 851.943 480.248 849.692 528.048C848.918 547.632 843.453 566.743 833.755 583.774C809.482 626.188 772.018 641.315 733.108 665.856C717.584 675.527 702.944 686.55 689.358 698.795C671.326 715.159 656.171 733.856 641.325 753.094C630.516 767.099 621.223 782.606 607.59 794.016C599.52 800.771 591.558 802.512 583.155 807.644C574.558 812.894 568.353 818.744 558.54 822.732C530.095 834.178 497.417 834.484 468.84 823.377C454.91 817.963 447.014 808.255 433.748 802.796C418.816 796.87 408.389 785.192 399.139 772.41C377.795 742.916 357.215 715.043 329.121 691.429C316.312 680.797 302.734 671.127 288.498 662.497C245.879 636.787 206.795 619.27 186.413 569.442C162.192 510.229 189.938 454.417 216.271 401.775C223.222 387.88 230.86 373.958 236.902 359.657C228.187 314.88 193.777 259.756 228.618 217.091C240.992 201.938 259.023 193.965 278.307 192.205C310.658 189.56 343.638 210.972 368.949 229.431C382.705 222.173 398.965 215.585 413.665 210.589C480.043 188.559 551.866 189.249 617.808 212.551C632.287 217.659 642.716 222.574 656.375 229.286Z"/>
  <path fill="white" d="M499.386 206.712C525.972 204.149 563.963 210.059 589.813 216.054C593.798 248.823 597.484 278.056 596.291 311.374C592.226 424.849 558.567 539.918 566.999 653.881C595.778 668.909 618.339 692.548 621.293 726.245C623.004 744.704 617.092 763.06 604.93 777.052C585.043 800.284 555.819 807 526.623 809.294C522.909 809.72 518.827 809.4 515.042 809.621C455.946 813.066 388.535 779.537 408.048 710.222C415.644 683.241 434.809 666.922 459.328 653.773C463.004 623.325 460.094 584.654 457.492 553.894C447.625 437.262 417.408 333.67 435.937 215.836C457.995 209.877 476.856 208.142 499.386 206.712Z"/>
  <path fill="#2E7E90" d="M501.372 701.208C501.491 701.19 501.611 701.172 501.73 701.154C523.41 700.117 546.888 701.262 564.995 714.418C591.695 733.815 582.253 767.338 558.476 784.429C547.681 792.189 537.125 795.682 523.866 797.32C523.437 797.369 523.007 797.414 522.576 797.454C501.84 799.405 480.422 795.528 464.065 781.952C453.824 773.452 445.862 761.216 444.687 747.731C443.82 738.197 446.837 728.716 453.054 721.435C464.892 707.361 483.901 702.794 501.372 701.208Z"/>
  <path fill="white" d="M506.328 713.204C525.098 711.758 553.422 714.003 563.753 732.32C549.495 726.963 535.34 727.463 520.44 728.381C497.623 729.276 485.352 724.678 462.228 731.925C470.972 716.377 490.246 714.261 506.328 713.204Z"/>
  <path fill="white" d="M775.474 370.946C776.843 372.166 783.276 384.358 784.506 386.736C799.982 416.659 814.788 444.362 819.369 477.987C829.883 555.163 771.076 579.22 722.157 621.842C694.551 645.895 677.167 665.28 655.073 694.077L636.762 719.502C623.933 649.491 672.877 607.771 698.622 548.815C714.141 513.275 714.159 471.586 730.062 435.506C741.183 410.277 752.785 388.075 775.474 370.946Z"/>
  <path fill="white" d="M251.461 370.914C286.717 397.149 304.517 447.043 312.436 488.717C315.965 507.285 319.514 527.106 326.577 544.642C342.758 584.813 372.866 618.251 385.87 659.895C392.87 682.297 392.25 696.184 388.975 718.588C383.224 710.4 377.422 702.249 371.569 694.135C353.011 669.12 331.96 646.056 308.741 625.296C299.11 616.726 289.168 608.513 278.934 600.674C250.072 578.688 219.682 558.308 209.903 520.959C196.748 470.72 226.98 413.158 251.461 370.914Z"/>
  <path fill="white" d="M741.474 204.704C750.895 203.383 766.287 206.88 774.523 211.752C789.827 220.805 794.486 231.015 798.99 247.044C774.156 226.532 756.391 220.69 726.316 235.283C714.402 241.813 705.975 248.082 696.178 257.412C687.93 250.754 679.652 245.21 670.842 239.315C689.815 222.416 715.952 207.143 741.474 204.704Z"/>
  <path fill="white" d="M277.549 204.698C301.218 201.592 336.847 223.529 354.289 239.343C345.763 244.893 337.229 250.648 329.402 257.151C321.794 250.206 313.594 243.938 304.896 238.419C274.801 220.387 253.112 225.006 227.767 247.403C233.937 219.93 249.81 207.647 277.549 204.698Z"/>
  <path fill="white" d="M368.329 500.29C392.811 507.69 408.406 525.269 420.872 547.114L415.348 549.11C391.448 555.984 368.014 549.094 365.602 520.586C364.983 513.266 366.442 507.354 368.329 500.29Z"/>
  <path fill="white" d="M657.121 500.503L658.1 500.929C664.565 515.188 661.442 538.608 646.748 546.74C635.5 552.965 625.156 552.328 613.165 549.346C611.107 548.83 608.218 547.757 606.141 547.058C617.488 526.701 634.349 507.657 657.121 500.503Z"/>
</svg>